HIERARCHY
ROOT Hips
{
	OFFSET 56.080399 -16.726116 96.235199
	CHANNELS 6 Xposition Yposition Zposition Xrotation Yrotation Zrotation
	JOINT spine
	{
		OFFSET 0.000000 -0.467661 8.132492
		CHANNELS 3 Xrotation Yrotation Zrotation
		JOINT spine1
		{
			OFFSET 0.000000 -0.000002 10.349800
			CHANNELS 3 Xrotation Yrotation Zrotation
			JOINT spine2
			{
				OFFSET 0.000000 -0.000002 9.916992
				CHANNELS 3 Xrotation Yrotation Zrotation
				JOINT Neck
				{
					OFFSET 0.000000 -1.213903 25.461006
					CHANNELS 3 Xrotation Yrotation Zrotation
					JOINT Head
					{
						OFFSET 0.000000 0.000000 7.692444
						CHANNELS 3 Xrotation Yrotation Zrotation
						End Site
						{
							OFFSET 0.000000 6.140626 18.619995
						}
					}
				}
				JOINT RightShoulder
				{
					OFFSET -4.175751 0.581444 10.709602
					CHANNELS 3 Xrotation Yrotation Zrotation
					JOINT RightArm
					{
						OFFSET 0.000000 -0.000002 14.046600
						CHANNELS 3 Xrotation Yrotation Zrotation
						JOINT RightArmRoll
						{
							OFFSET 0.000000 0.000000 7.090988
							CHANNELS 3 Xrotation Yrotation Zrotation
							JOINT RightForeArm
							{
								OFFSET 0.000000 -0.000004 20.653503
								CHANNELS 3 Xrotation Yrotation Zrotation
								JOINT RightForeArmRoll
								{
									OFFSET 0.000000 -0.000002 7.957184
									CHANNELS 3 Xrotation Yrotation Zrotation
									JOINT RightHand
									{
										OFFSET 0.000000 -0.000002 15.968307
										CHANNELS 3 Xrotation Yrotation Zrotation
										End Site
										{
											OFFSET 0.000000 0.000000 0.100006
										}
									}
								}
							}
						}
					}
				}
				JOINT LeftShoulder
				{
					OFFSET 4.175751 0.581444 10.709602
					CHANNELS 3 Xrotation Yrotation Zrotation
					JOINT LeftArm
					{
						OFFSET 0.000000 -0.000002 14.046600
						CHANNELS 3 Xrotation Yrotation Zrotation
						JOINT LeftArmRoll
						{
							OFFSET 0.000000 0.000000 7.090973
							CHANNELS 3 Xrotation Yrotation Zrotation
							JOINT LeftForeArm
							{
								OFFSET 0.000000 -0.000004 20.653503
								CHANNELS 3 Xrotation Yrotation Zrotation
								JOINT LeftForeArmRoll
								{
									OFFSET 0.000000 -0.000002 7.957184
									CHANNELS 3 Xrotation Yrotation Zrotation
									JOINT LeftHand
									{
										OFFSET 0.000000 -0.000002 15.968292
										CHANNELS 3 Xrotation Yrotation Zrotation
										End Site
										{
											OFFSET 0.000000 0.000000 0.100006
										}
									}
								}
							}
						}
					}
				}
			}
		}
	}
	JOINT RightUpLeg
	{
		OFFSET -7.208340 1.108840 -1.321823
		CHANNELS 3 Xrotation Yrotation Zrotation
		JOINT RightUpLegRoll
		{
			OFFSET 0.000000 -0.000003 18.723801
			CHANNELS 3 Xrotation Yrotation Zrotation
			JOINT RightLeg
			{
				OFFSET 0.000000 0.000004 -23.186600
				CHANNELS 3 Xrotation Yrotation Zrotation
				JOINT RightLegRoll
				{
					OFFSET 0.000000 -0.000004 23.262398
					CHANNELS 3 Xrotation Yrotation Zrotation
					JOINT RightFoot
					{
						OFFSET 0.000000 -0.000004 19.362099
						CHANNELS 3 Xrotation Yrotation Zrotation
						JOINT RightToeBase
						{
							OFFSET 0.000000 -0.000002 16.185699
							CHANNELS 3 Xrotation Yrotation Zrotation
							End Site
							{
								OFFSET 0.006859 0.903520 7.838623
							}
						}
					}
				}
			}
		}
	}
	JOINT LeftUpLeg
	{
		OFFSET 7.208340 1.108840 -1.321823
		CHANNELS 3 Xrotation Yrotation Zrotation
		JOINT LeftUpLegRoll
		{
			OFFSET 0.000000 -0.000003 18.723900
			CHANNELS 3 Xrotation Yrotation Zrotation
			JOINT LeftLeg
			{
				OFFSET 0.000000 -0.000004 23.186501
				CHANNELS 3 Xrotation Yrotation Zrotation
				JOINT LeftLegRoll
				{
					OFFSET 0.000000 -0.000004 23.477493
					CHANNELS 3 Xrotation Yrotation Zrotation
					JOINT LeftFoot
					{
						OFFSET 0.000000 -0.000004 19.147003
						CHANNELS 3 Xrotation Yrotation Zrotation
						JOINT LeftToeBase
						{
							OFFSET 0.000000 -0.000002 16.185699
							CHANNELS 3 Xrotation Yrotation Zrotation
							End Site
							{
								OFFSET -0.030746 0.903520 7.838623
							}
						}
					}
				}
			}
		}
	}
}
MOTION
Frames: 7
Frame Time: 0.041667
52.721600 -7.150171 96.074692 -2.687694 0.404718 0.857154 -0.363049 -0.216939 0.168019 3.277344 -0.433253 0.320777 4.922418 -0.429389 0.325943 13.108416 -0.805839 -4.435457 2.829483 1.230329 -4.605792 -20.436042 -57.029925 -24.182590 -42.461387 -120.801458 -25.420685 0.000000 -0.000000 -0.000004 10.545675 -9.572239 -0.067293 0.000001 0.000006 -3.001129 -5.000219 -7.998832 0.000134 -13.589506 55.839208 15.940625 -44.662166 121.588009 37.740511 -0.000001 0.000001 0.000006 6.997705 9.185610 0.294681 0.000005 -0.000003 3.000001 -5.000221 7.998880 -0.000153 -1.584391 -174.979912 3.846302 -179.999991 0.000005 -0.997995 170.586065 -3.819026 -0.647691 0.000002 0.000001 0.028034 68.992239 6.314196 3.598454 25.456877 -7.349453 0.000000 -1.717786 174.727345 -0.195545 -0.000005 -0.000005 -0.891318 -11.084888 0.901967 0.689710 -0.000001 -0.000003 -0.028704 70.737366 -5.635140 -5.438434 25.456897 7.352989 0.000005 
52.720200 -7.160088 96.074997 -2.694745 0.403020 0.849655 -0.362579 -0.215437 0.166782 3.278292 -0.430259 0.321511 4.923366 -0.426397 0.326642 13.097868 -0.821742 -4.439953 2.818478 1.244864 -4.611321 -20.436536 -57.052570 -24.182939 -42.489463 -120.822317 -25.490732 -0.000001 -0.000000 -0.000005 10.601877 -9.588023 -0.062853 0.000004 0.000005 -3.001128 -5.000218 -7.998831 0.000134 -13.587010 55.844241 15.937813 -44.681025 121.612147 37.805596 -0.000001 0.000002 0.000006 7.027924 9.200117 0.289342 0.000007 -0.000002 3.000000 -5.000222 7.998880 -0.000152 -1.580221 -174.978901 3.842900 -179.999991 0.000005 -0.996998 170.566271 -3.810910 -0.648710 0.000003 0.000001 0.028034 69.007566 6.307467 3.617331 25.456875 -7.349454 0.000001 -1.718182 174.730350 -0.195499 -0.000005 -0.000004 -0.890854 -11.111889 0.900944 0.691072 -0.000001 -0.000003 -0.028738 70.755931 -5.633612 -5.440832 25.456899 7.352989 0.000005 
52.726299 -7.162277 96.076195 -2.702056 0.401211 0.842235 -0.362031 -0.213889 0.165472 3.279380 -0.427174 0.322283 4.924454 -0.423315 0.327376 13.087124 -0.838850 -4.444469 2.807412 1.260407 -4.616932 -20.437926 -57.076093 -24.184353 -42.519259 -120.842685 -25.563001 -0.000001 0.000000 -0.000003 10.658902 -9.603965 -0.058314 0.000002 0.000005 -3.001132 -5.000218 -7.998829 0.000133 -13.583710 55.849152 15.934030 -44.700573 121.635369 37.872965 -0.000001 0.000001 0.000005 7.060264 9.215102 0.283714 0.000003 -0.000002 3.000001 -5.000221 7.998880 -0.000153 -1.575792 -174.978901 3.839606 -179.999991 0.000005 -0.996000 170.546026 -3.801805 -0.649578 0.000003 0.000001 0.028034 69.023248 6.300524 3.636849 25.456878 -7.349453 0.000001 -1.718614 174.732345 -0.195375 -0.000005 -0.000005 -0.890366 -11.139391 0.899901 0.692477 -0.000002 -0.000003 -0.028736 70.774878 -5.631935 -5.443588 25.456897 7.352988 0.000006 
52.716400 -7.164248 96.074196 -2.709526 0.399327 0.834872 -0.361438 -0.212310 0.164113 3.280560 -0.424027 0.323081 4.925633 -0.420169 0.328135 13.076187 -0.856804 -4.449019 2.796294 1.276650 -4.622599 -20.440009 -57.100132 -24.186545 -42.549637 -120.863312 -25.635947 -0.000001 -0.000001 -0.000003 10.716646 -9.620003 -0.053700 0.000003 0.000005 -3.001132 -5.000218 -7.998832 0.000133 -13.579891 55.854029 15.929596 -44.718382 121.659029 37.939396 -0.000002 0.000000 0.000006 7.094092 9.230412 0.277874 0.000009 -0.000002 3.000001 -5.000219 7.998879 -0.000153 -1.571208 -174.977890 3.836351 -179.999991 0.000005 -0.995003 170.525453 -3.793696 -0.650626 0.000003 0.000001 0.028034 69.039217 6.293428 3.656823 25.456878 -7.349455 0.000000 -1.719080 174.735363 -0.195250 -0.000005 -0.000005 -0.889862 -11.167391 0.898844 0.693912 -0.000001 -0.000003 -0.028711 70.794023 -5.630228 -5.446331 25.456899 7.352989 0.000004 
52.708599 -7.169236 96.072899 -2.717105 0.397400 0.827541 -0.360815 -0.210712 0.162724 3.281799 -0.420844 0.323892 4.926881 -0.416989 0.328908 13.065149 -0.875239 -4.453566 2.785142 1.293301 -4.628300 -20.442353 -57.124625 -24.189115 -42.581411 -120.883338 -25.710630 0.000001 -0.000001 -0.000004 10.774702 -9.636102 -0.049024 0.000002 0.000005 -3.001130 -5.000217 -7.998831 0.000133 -13.575733 55.858837 15.924772 -44.735885 121.682579 38.006096 -0.000001 0.000001 0.000005 7.128778 9.245907 0.271915 0.000007 -0.000002 3.000001 -5.000220 7.998879 -0.000153 -1.566521 -174.976852 3.833134 -179.999991 0.000005 -0.994006 170.504676 -3.785571 -0.652677 0.000003 0.000001 0.028034 69.055357 6.286282 3.676981 25.456871 -7.349453 0.000000 -1.719554 174.737358 -0.195075 -0.000004 -0.000004 -0.889348 -11.195690 0.897779 0.695364 -0.000001 -0.000003 -0.028672 70.813257 -5.628461 -5.449356 25.456894 7.352987 0.000005 
52.715698 -7.181763 96.073395 -2.724701 0.395464 0.820216 -0.360186 -0.209109 0.161328 3.283057 -0.417651 0.324708 4.928127 -0.413798 0.329684 13.054213 -0.893793 -4.458129 2.773984 1.310044 -4.634010 -20.444942 -57.149193 -24.191900 -42.612017 -120.904102 -25.783974 0.000002 0.000000 -0.000003 10.832867 -9.652226 -0.044306 0.000001 0.000006 -3.001132 -5.000220 -7.998830 0.000135 -13.571492 55.863670 15.919851 -44.754500 121.705420 38.074261 -0.000001 0.000001 0.000006 7.163671 9.261441 0.265917 0.000006 -0.000002 3.000000 -5.000222 7.998881 -0.000153 -1.561815 -174.975854 3.829929 -179.999991 0.000004 -0.992995 170.483871 -3.776462 -0.653577 0.000003 0.000001 0.028034 69.071511 6.279103 3.697235 25.456877 -7.349454 0.000000 -1.720029 174.740363 -0.194926 -0.000005 -0.000005 -0.888833 -11.223991 0.896709 0.696819 -0.000001 -0.000003 -0.028629 70.832484 -5.626715 -5.452189 25.456895 7.352989 0.000005 
52.715599 -7.184393 96.086685 -2.732255 0.393552 0.812875 -0.359571 -0.207516 0.159947 3.284286 -0.414477 0.325516 4.929356 -0.410625 0.330454 13.043179 -0.912103 -4.462699 2.762854 1.326598 -4.639691 -20.447250 -57.173601 -24.194402 -42.643579 -120.924073 -25.858360 0.000000 -0.000000 -0.000002 10.890837 -9.668319 -0.039572 0.000004 0.000005 -3.001130 -5.000218 -7.998831 0.000134 -13.567408 55.868478 15.915102 -44.771972 121.728956 38.140825 -0.000001 0.000001 0.000005 7.198146 9.276892 0.259948 0.000006 -0.000003 3.000000 -5.000223 7.998880 -0.000153 -1.557158 -174.975841 3.826737 -179.999991 0.000005 -0.991998 170.463148 -3.768338 -0.654616 0.000003 0.000001 0.028034 69.087568 6.272027 3.717412 25.456871 -7.349453 0.000001 -1.720507 174.742344 -0.194755 -0.000005 -0.000005 -0.888321 -11.252191 0.895643 0.698264 -0.000000 -0.000004 -0.028593 70.851622 -5.624989 -5.455130 25.456894 7.352986 0.000005 
